<svg width="37" height="37" viewBox="0 0 37 37" fill="none" xmlns="http://www.w3.org/2000/svg">
<rect x="1" y="1.00488" width="35" height="35" rx="17.5" stroke="#282A30" stroke-width="1.5"/>
<path d="M20.5766 13.5049H22.6534C22.8445 13.5049 22.9995 13.3649 22.9995 13.1924V11.3174C22.9995 11.1449 22.8445 11.0049 22.6534 11.0049H20.5766C18.4776 11.0049 16.7691 12.5468 16.7691 14.4424V16.6299H14.3461C14.1551 16.6299 14 16.7699 14 16.9424V18.8174C14 18.9899 14.1551 19.1299 14.3461 19.1299H16.7691V25.6924C16.7691 25.8649 16.9242 26.0049 17.1152 26.0049H19.192C19.3831 26.0049 19.5382 25.8649 19.5382 25.6924V19.1299H21.9611C22.11 19.1299 22.2422 19.0436 22.29 18.9161L22.9822 17.0411C23.0175 16.9461 22.9995 16.8411 22.9345 16.7593C22.8687 16.678 22.7649 16.6299 22.6534 16.6299H19.5382V14.4424C19.5382 13.9255 20.0041 13.5049 20.5766 13.5049Z" fill="#282A30"/>
</svg>
