<svg width="37" height="37" viewBox="0 0 37 37" fill="none" xmlns="http://www.w3.org/2000/svg">
<rect x="1" y="1.00488" width="35" height="35" rx="17.5" stroke="#282A30" stroke-width="1.5"/>
<path d="M21.7333 10.5049H15.2659C14.0023 10.5064 12.7908 11.0091 11.8973 11.9027C11.0038 12.7964 10.5013 14.0079 10.5 15.2716L10.5 21.7389C10.5015 23.0026 11.0042 24.2141 11.8978 25.1076C12.7915 26.0011 14.0031 26.5036 15.2667 26.5049H21.7341C22.9977 26.5034 24.2092 26.0007 25.1027 25.107C25.9962 24.2134 26.4987 23.0018 26.5 21.7381V15.2708C26.4985 14.0071 25.9958 12.7956 25.1022 11.9022C24.2085 11.0087 22.9969 10.5062 21.7333 10.5049V10.5049ZM24.8908 21.7381C24.8908 22.1528 24.8091 22.5634 24.6504 22.9465C24.4918 23.3296 24.2592 23.6776 23.966 23.9708C23.6728 24.2641 23.3247 24.4966 22.9416 24.6553C22.5585 24.814 22.1479 24.8957 21.7333 24.8957H15.2659C14.4287 24.8955 13.6257 24.5627 13.0338 23.9706C12.4418 23.3784 12.1092 22.5754 12.1092 21.7381V15.2708C12.1094 14.4335 12.4422 13.6306 13.0343 13.0386C13.6264 12.4467 14.4295 12.1141 15.2667 12.1141H21.7341C22.5713 12.1143 23.3743 12.4471 23.9662 13.0392C24.5582 13.6313 24.8908 14.4343 24.8908 15.2716V21.7389V21.7381Z" fill="#282A30"/>
<path d="M18.4988 14.5049C17.4386 14.5065 16.4224 14.9285 15.6728 15.6782C14.9232 16.4279 14.5014 17.4443 14.5 18.5045C14.5012 19.565 14.923 20.5816 15.6728 21.3316C16.4226 22.0815 17.4392 22.5034 18.4996 22.5049C19.5602 22.5037 20.577 22.0818 21.327 21.3318C22.0769 20.5819 22.4988 19.5651 22.5 18.5045C22.4984 17.444 22.0762 16.4275 21.3261 15.6779C20.5761 14.9282 19.5593 14.5067 18.4988 14.5057V14.5049ZM18.4988 20.9493C17.8506 20.9493 17.229 20.6918 16.7706 20.2335C16.3123 19.7751 16.0548 19.1535 16.0548 18.5053C16.0548 17.8571 16.3123 17.2354 16.7706 16.777C17.229 16.3187 17.8506 16.0612 18.4988 16.0612C19.147 16.0612 19.7687 16.3187 20.2271 16.777C20.6854 17.2354 20.9429 17.8571 20.9429 18.5053C20.9429 19.1535 20.6854 19.7751 20.2271 20.2335C19.7687 20.6918 19.147 20.9493 18.4988 20.9493Z" fill="#282A30"/>
</svg>
