<svg width="24" height="24" viewBox="0 0 24 24" fill="none" xmlns="http://www.w3.org/2000/svg">
<path d="M12 3.875C12.1658 3.875 12.3247 3.94085 12.4419 4.05806C12.5592 4.17527 12.625 4.33424 12.625 4.5V6.375C12.625 6.54076 12.5592 6.69973 12.4419 6.81694C12.3247 6.93415 12.1658 7 12 7C11.8342 7 11.6753 6.93415 11.5581 6.81694C11.4408 6.69973 11.375 6.54076 11.375 6.375V4.5C11.375 4.33424 11.4408 4.17527 11.5581 4.05806C11.6753 3.94085 11.8342 3.875 12 3.875ZM8.25 12C8.25 11.0054 8.64509 10.0516 9.34835 9.34835C10.0516 8.64509 11.0054 8.25 12 8.25C12.9946 8.25 13.9484 8.64509 14.6516 9.34835C15.3549 10.0516 15.75 11.0054 15.75 12C15.75 12.9946 15.3549 13.9484 14.6516 14.6516C13.9484 15.3549 12.9946 15.75 12 15.75C11.0054 15.75 10.0516 15.3549 9.34835 14.6516C8.64509 13.9484 8.25 12.9946 8.25 12ZM17.745 7.13833C17.8554 7.01985 17.9155 6.86315 17.9126 6.70123C17.9098 6.53931 17.8442 6.38483 17.7297 6.27032C17.6152 6.1558 17.4607 6.09021 17.2988 6.08735C17.1369 6.0845 16.9801 6.1446 16.8617 6.255L15.5358 7.58C15.4761 7.63763 15.4285 7.70657 15.3957 7.78281C15.3629 7.85904 15.3456 7.94105 15.3448 8.02403C15.3441 8.10702 15.3599 8.18933 15.3912 8.26615C15.4226 8.34298 15.469 8.41278 15.5277 8.47149C15.5863 8.5302 15.6561 8.57664 15.7329 8.6081C15.8097 8.63956 15.892 8.65542 15.975 8.65474C16.0579 8.65405 16.14 8.63685 16.2162 8.60413C16.2925 8.57141 16.3615 8.52383 16.4192 8.46417L17.745 7.13833ZM20.125 12C20.125 12.1658 20.0592 12.3247 19.9419 12.4419C19.8247 12.5592 19.6658 12.625 19.5 12.625H17.625C17.4592 12.625 17.3003 12.5592 17.1831 12.4419C17.0658 12.3247 17 12.1658 17 12C17 11.8342 17.0658 11.6753 17.1831 11.5581C17.3003 11.4408 17.4592 11.375 17.625 11.375H19.5C19.6658 11.375 19.8247 11.4408 19.9419 11.5581C20.0592 11.6753 20.125 11.8342 20.125 12ZM16.8617 17.745C16.9801 17.8554 17.1369 17.9155 17.2988 17.9126C17.4607 17.9098 17.6152 17.8442 17.7297 17.7297C17.8442 17.6152 17.9098 17.4607 17.9126 17.2988C17.9155 17.1369 17.8554 16.9801 17.745 16.8617L16.42 15.5358C16.3624 15.4761 16.2934 15.4285 16.2172 15.3957C16.141 15.3629 16.059 15.3456 15.976 15.3448C15.893 15.3441 15.8107 15.3599 15.7338 15.3912C15.657 15.4226 15.5872 15.469 15.5285 15.5277C15.4698 15.5863 15.4234 15.6561 15.3919 15.7329C15.3604 15.8097 15.3446 15.892 15.3453 15.975C15.3459 16.0579 15.3631 16.14 15.3959 16.2162C15.4286 16.2925 15.4762 16.3615 15.5358 16.4192L16.8617 17.745ZM12 17C12.1658 17 12.3247 17.0658 12.4419 17.1831C12.5592 17.3003 12.625 17.4592 12.625 17.625V19.5C12.625 19.6658 12.5592 19.8247 12.4419 19.9419C12.3247 20.0592 12.1658 20.125 12 20.125C11.8342 20.125 11.6753 20.0592 11.5581 19.9419C11.4408 19.8247 11.375 19.6658 11.375 19.5V17.625C11.375 17.4592 11.4408 17.3003 11.5581 17.1831C11.6753 17.0658 11.8342 17 12 17ZM8.465 16.4192C8.57879 16.3012 8.64172 16.1433 8.64022 15.9795C8.63872 15.8156 8.57291 15.6589 8.45698 15.543C8.34104 15.4272 8.18425 15.3615 8.02038 15.3602C7.8565 15.3589 7.69866 15.4219 7.58083 15.5358L6.255 16.8608C6.14109 16.9787 6.07802 17.1365 6.07937 17.3004C6.08071 17.4643 6.14637 17.621 6.2622 17.737C6.37802 17.8529 6.53475 17.9187 6.69862 17.9202C6.8625 17.9217 7.0204 17.8588 7.13833 17.745L8.465 16.4192ZM7 12C7 12.1658 6.93415 12.3247 6.81694 12.4419C6.69973 12.5592 6.54076 12.625 6.375 12.625H4.5C4.33424 12.625 4.17527 12.5592 4.05806 12.4419C3.94085 12.3247 3.875 12.1658 3.875 12C3.875 11.8342 3.94085 11.6753 4.05806 11.5581C4.17527 11.4408 4.33424 11.375 4.5 11.375H6.375C6.54076 11.375 6.69973 11.4408 6.81694 11.5581C6.93415 11.6753 7 11.8342 7 12ZM7.58083 8.46417C7.69931 8.57457 7.85602 8.63467 8.01794 8.63181C8.17985 8.62896 8.33434 8.56336 8.44885 8.44885C8.56336 8.33434 8.62896 8.17985 8.63181 8.01794C8.63467 7.85602 8.57457 7.69931 8.46417 7.58083L7.13917 6.255C7.02134 6.14109 6.8635 6.07802 6.69962 6.07937C6.53575 6.08071 6.37896 6.14637 6.26302 6.2622C6.14709 6.37802 6.08128 6.53475 6.07978 6.69862C6.07828 6.8625 6.14121 7.0204 6.255 7.13833L7.58083 8.46417Z" fill="currentColor"/>
</svg>
