<svg width="24" height="24" viewBox="0 0 24 24" fill="none" xmlns="http://www.w3.org/2000/svg">
<path d="M16.839 4.00024H7.16C6.633 4.00024 6.179 4.00024 5.804 4.03024C5.409 4.06324 5.015 4.13424 4.637 4.32724C4.07254 4.61486 3.61362 5.07378 3.326 5.63824C3.23791 5.82937 3.18053 6.03322 3.156 6.24224C3.13 6.41624 3.11 6.62224 3.094 6.83924C3.061 7.27524 3.04 7.81424 3.027 8.36124C3 9.45724 3 10.6372 3 11.1972V11.2002C3 11.4655 3.10536 11.7198 3.29289 11.9073C3.48043 12.0949 3.73478 12.2002 4 12.2002C4.26522 12.2002 4.51957 12.0949 4.70711 11.9073C4.89464 11.7198 5 11.4655 5 11.2002C5 10.9202 5 10.4922 5.003 10.0002H19V14.8002C19 15.3772 19 15.7492 18.976 16.0322C18.954 16.3042 18.916 16.4042 18.891 16.4542C18.7951 16.6424 18.6422 16.7954 18.454 16.8912C18.404 16.9162 18.304 16.9542 18.032 16.9762C17.75 17.0002 17.377 17.0002 16.8 17.0002H12C11.7348 17.0002 11.4804 17.1056 11.2929 17.2931C11.1054 17.4807 11 17.735 11 18.0002C11 18.2655 11.1054 18.5198 11.2929 18.7073C11.4804 18.8949 11.7348 19.0002 12 19.0002H16.839C17.366 19.0002 17.821 19.0002 18.195 18.9702C18.59 18.9372 18.984 18.8662 19.362 18.6732C19.9265 18.3856 20.3854 17.9267 20.673 17.3622C20.866 16.9842 20.937 16.5902 20.969 16.1952C21 15.8202 21 15.3652 21 14.8392V8.16024C21 7.63324 21 7.17924 20.97 6.80424C20.937 6.40924 20.866 6.01524 20.673 5.63724C20.3854 5.07278 19.9265 4.61386 19.362 4.32624C18.984 4.13324 18.59 4.06224 18.195 4.03024C17.7432 4.00318 17.2905 3.99318 16.838 4.00024M18.998 8.00024H5.04C5.052 7.62124 5.069 7.27324 5.09 6.98724C5.10227 6.81896 5.12061 6.65119 5.145 6.48424C5.24133 6.32414 5.3806 6.19423 5.547 6.10924C5.597 6.08424 5.697 6.04624 5.969 6.02424C6.25 6.00024 6.623 6.00024 7.2 6.00024H16.8C17.377 6.00024 17.749 6.00024 18.032 6.02424C18.304 6.04624 18.404 6.08424 18.454 6.10924C18.6422 6.20511 18.7951 6.35809 18.891 6.54624C18.916 6.59624 18.954 6.69624 18.976 6.96824C18.996 7.21724 19 7.53524 19 8.00024" fill="currentColor"/>
<path d="M9.31399 15.8766L8.59399 16.5766C9.04599 17.4296 8.90399 18.5016 8.16499 19.2176L7.01699 20.3316C6.56857 20.7601 5.97222 20.9992 5.35199 20.9992C4.73176 20.9992 4.1354 20.7601 3.68699 20.3316C3.47008 20.1243 3.29744 19.8753 3.17949 19.5994C3.06154 19.3235 3.00073 19.0266 3.00073 18.7266C3.00073 18.4266 3.06154 18.1297 3.17949 17.8538C3.29744 17.578 3.47008 17.3289 3.68699 17.1216L4.40699 16.4236C4.18121 15.9966 4.10084 15.5077 4.17808 15.0309C4.25532 14.5541 4.48595 14.1155 4.83499 13.7816L5.98299 12.6676C6.4314 12.2391 7.02775 12 7.64799 12C8.26822 12 8.86457 12.2391 9.31299 12.6676C9.52989 12.8749 9.70253 13.124 9.82048 13.3998C9.93843 13.6757 9.99924 13.9726 9.99924 14.2726C9.99924 14.5726 9.93843 14.8695 9.82048 15.1454C9.70253 15.4213 9.52989 15.6703 9.31299 15.8776M8.66199 15.2676C8.79605 15.1391 8.90273 14.9848 8.9756 14.814C9.04848 14.6431 9.08605 14.4593 9.08605 14.2736C9.08605 14.0879 9.04848 13.9041 8.9756 13.7333C8.90273 13.5625 8.79605 13.4081 8.66199 13.2796C8.38917 13.0177 8.02565 12.8715 7.64749 12.8715C7.26932 12.8715 6.90581 13.0177 6.63299 13.2796L5.48399 14.3936C5.30225 14.5684 5.17187 14.7896 5.10699 15.0332C5.04212 15.2769 5.04523 15.5336 5.11599 15.7756C5.54715 15.4759 6.06412 15.3245 6.58888 15.3443C7.11363 15.3642 7.61769 15.5541 8.02499 15.8856L8.66199 15.2676ZM7.37399 16.4996C7.12099 16.3125 6.81464 16.2116 6.49999 16.2116C6.18533 16.2116 5.87898 16.3125 5.62599 16.4996C5.87898 16.6867 6.18533 16.7877 6.49999 16.7877C6.81464 16.7877 7.12099 16.6867 7.37399 16.4996ZM4.33699 17.7326C4.20292 17.8611 4.09625 18.0155 4.02337 18.1863C3.95049 18.3571 3.91293 18.5409 3.91293 18.7266C3.91293 18.9123 3.95049 19.0961 4.02337 19.267C4.09625 19.4378 4.20292 19.5921 4.33699 19.7206C4.60981 19.9825 4.97332 20.1287 5.35149 20.1287C5.72965 20.1287 6.09317 19.9825 6.36599 19.7206L7.51499 18.6066C7.89999 18.2336 8.02299 17.7006 7.88299 17.2246C7.45182 17.5244 6.93485 17.6758 6.4101 17.6559C5.88534 17.6361 5.38128 17.4461 4.97399 17.1146L4.33699 17.7326ZM14 12.9996C13.7348 12.9996 13.4804 13.105 13.2929 13.2925C13.1053 13.4801 13 13.7344 13 13.9996C13 14.2648 13.1053 14.5192 13.2929 14.7067C13.4804 14.8943 13.7348 14.9996 14 14.9996H17C17.2652 14.9996 17.5196 14.8943 17.7071 14.7067C17.8946 14.5192 18 14.2648 18 13.9996C18 13.7344 17.8946 13.4801 17.7071 13.2925C17.5196 13.105 17.2652 12.9996 17 12.9996H14Z" fill="currentColor"/>
</svg>
