<svg width="24" height="24" viewBox="0 0 24 24" fill="none" xmlns="http://www.w3.org/2000/svg">
<path d="M19.9 12.6594C19.7397 12.4769 19.6513 12.2423 19.6513 11.9994C19.6513 11.7565 19.7397 11.5219 19.9 11.3394L21.18 9.89941C21.3211 9.74208 21.4086 9.54411 21.4302 9.33391C21.4518 9.12372 21.4062 8.91209 21.3 8.72941L19.3 5.26941C19.1949 5.08693 19.0349 4.94228 18.8428 4.85609C18.6506 4.7699 18.4362 4.74656 18.23 4.78941L16.35 5.16941C16.1108 5.21884 15.8617 5.179 15.6499 5.05741C15.438 4.93582 15.278 4.74089 15.2 4.50941L14.59 2.67941C14.5229 2.48079 14.3951 2.30827 14.2246 2.18625C14.0542 2.06423 13.8496 1.99887 13.64 1.99941H9.64C9.42194 1.98802 9.20614 2.04833 9.02557 2.17112C8.845 2.29391 8.70958 2.47243 8.64 2.67941L8.08 4.50941C8.002 4.74089 7.84198 4.93582 7.63012 5.05741C7.41826 5.179 7.16922 5.21884 6.93 5.16941L5 4.78941C4.80455 4.76179 4.6053 4.79263 4.42735 4.87805C4.2494 4.96346 4.1007 5.09964 4 5.26941L2 8.72941C1.89116 8.91006 1.84223 9.12049 1.86019 9.33063C1.87815 9.54077 1.96209 9.73985 2.1 9.89941L3.37 11.3394C3.53032 11.5219 3.61874 11.7565 3.61874 11.9994C3.61874 12.2423 3.53032 12.4769 3.37 12.6594L2.1 14.0994C1.96209 14.259 1.87815 14.458 1.86019 14.6682C1.84223 14.8783 1.89116 15.0888 2 15.2694L4 18.7294C4.1051 18.9119 4.26512 19.0565 4.45726 19.1427C4.64939 19.2289 4.86383 19.2522 5.07 19.2094L6.95 18.8294C7.18922 18.78 7.43826 18.8198 7.65012 18.9414C7.86198 19.063 8.022 19.2579 8.1 19.4894L8.71 21.3194C8.77958 21.5264 8.915 21.7049 9.09557 21.8277C9.27614 21.9505 9.49194 22.0108 9.71 21.9994H13.71C13.9196 21.9999 14.1242 21.9346 14.2946 21.8126C14.4651 21.6905 14.5929 21.518 14.66 21.3194L15.27 19.4894C15.348 19.2579 15.508 19.063 15.7199 18.9414C15.9317 18.8198 16.1808 18.78 16.42 18.8294L18.3 19.2094C18.5062 19.2522 18.7206 19.2289 18.9128 19.1427C19.1049 19.0565 19.2649 18.9119 19.37 18.7294L21.37 15.2694C21.4762 15.0867 21.5218 14.8751 21.5002 14.6649C21.4786 14.4547 21.3911 14.2567 21.25 14.0994L19.9 12.6594ZM18.41 13.9994L19.21 14.8994L17.93 17.1194L16.75 16.8794C16.0298 16.7322 15.2806 16.8545 14.6446 17.2232C14.0086 17.5919 13.5301 18.1812 13.3 18.8794L12.92 19.9994H10.36L10 18.8594C9.76986 18.1612 9.29138 17.5719 8.65541 17.2032C8.01943 16.8345 7.27022 16.7122 6.55 16.8594L5.37 17.0994L4.07 14.8894L4.87 13.9894C5.36196 13.4394 5.63394 12.7273 5.63394 11.9894C5.63394 11.2515 5.36196 10.5394 4.87 9.98941L4.07 9.08941L5.35 6.88941L6.53 7.12941C7.25022 7.27663 7.99943 7.15429 8.63541 6.78561C9.27138 6.41692 9.74986 5.82757 9.98 5.12941L10.36 3.99941H12.92L13.3 5.13941C13.5301 5.83757 14.0086 6.42692 14.6446 6.79561C15.2806 7.16429 16.0298 7.28663 16.75 7.13941L17.93 6.89941L19.21 9.11941L18.41 10.0194C17.9236 10.5682 17.655 11.2761 17.655 12.0094C17.655 12.7427 17.9236 13.4506 18.41 13.9994ZM11.64 7.99941C10.8489 7.99941 10.0755 8.234 9.41772 8.67353C8.75992 9.11305 8.24724 9.73777 7.94448 10.4687C7.64173 11.1996 7.56252 12.0038 7.71686 12.7798C7.8712 13.5557 8.25217 14.2684 8.81158 14.8278C9.37099 15.3872 10.0837 15.7682 10.8596 15.9225C11.6356 16.0769 12.4398 15.9977 13.1707 15.6949C13.9016 15.3922 14.5264 14.8795 14.9659 14.2217C15.4054 13.5639 15.64 12.7905 15.64 11.9994C15.64 10.9385 15.2186 9.92112 14.4684 9.17098C13.7183 8.42083 12.7009 7.99941 11.64 7.99941ZM11.64 13.9994C11.2444 13.9994 10.8578 13.8821 10.5289 13.6623C10.2 13.4426 9.94362 13.1302 9.79224 12.7648C9.64087 12.3993 9.60126 11.9972 9.67843 11.6092C9.7556 11.2213 9.94608 10.8649 10.2258 10.5852C10.5055 10.3055 10.8619 10.115 11.2498 10.0378C11.6378 9.96067 12.0399 10.0003 12.4054 10.1516C12.7708 10.303 13.0832 10.5594 13.3029 10.8883C13.5227 11.2172 13.64 11.6038 13.64 11.9994C13.64 12.5298 13.4293 13.0385 13.0542 13.4136C12.6791 13.7887 12.1704 13.9994 11.64 13.9994Z" fill="currentColor"/>
</svg>
