<svg width="22" height="20" viewBox="0 0 22 20" fill="none" xmlns="http://www.w3.org/2000/svg">
<path d="M8.51408 12.7071C11.6415 12.6991 14.3007 14.135 15.2782 17.2261C13.308 18.4272 10.9889 18.8898 8.51408 18.8837C6.03921 18.8898 3.72016 18.4272 1.75 17.2261C2.72857 14.1317 5.38327 12.6991 8.51408 12.7071Z" stroke="currentColor" stroke-width="1.5" stroke-linecap="square"/>
    <path d="M15.0852 16.2321C16.975 16.2367 18.7458 15.8835 20.2502 14.9664C19.5039 12.606 17.4733 11.5095 15.0852 11.5157C13.5809 11.5118 12.2205 11.9435 11.2324 12.8529" stroke="current" stroke-width="1.5" stroke-linecap="square"/>
    <circle cx="8.51421" cy="5.3521" r="4.23687" stroke="currentColor" stroke-width="1.5" stroke-linecap="square"/>
<path d="M12.7143 3.67014C13.3046 3.05148 14.1371 2.66602 15.0597 2.66602C16.8498 2.66602 18.301 4.11718 18.301 5.90729C18.301 7.69739 16.8498 9.14856 15.0597 9.14856C13.9654 9.14856 12.9978 8.60626 12.4109 7.77575" stroke="currentColor" stroke-width="1.5" stroke-linecap="square"/>
</svg>
